<?xml version="1.0" encoding="UTF-8"?>
<svg width="700pt" height="700pt" version="1.1" viewBox="0 0 700 700" xmlns="http://www.w3.org/2000/svg">
 <path d="m350 17.5c-144.74 0-262.5 117.76-262.5 262.5 0 49.93 14.004 98.18 40.59 140.15l-39.344 98.344c-2.5977 6.5039-1.0664 13.93 3.8828 18.879 3.3398 3.3477 7.8164 5.125 12.371 5.125 2.1875 0 4.3906-0.41016 6.5039-1.2461l98.344-39.34c41.973 26.582 90.223 40.586 140.15 40.586 144.74 0 262.5-117.76 262.5-262.5s-117.76-262.5-262.5-262.5zm0 490c-46.008 0-90.363-13.723-128.29-39.676-2.957-2.0234-6.4102-3.0586-9.8867-3.0586-2.1953 0-4.4023 0.41016-6.5039 1.2578l-68.914 27.566 27.566-68.914c2.1719-5.4258 1.4961-11.57-1.8047-16.391-25.949-37.922-39.672-82.277-39.672-128.29 0-125.45 102.05-227.5 227.5-227.5s227.5 102.05 227.5 227.5-102.05 227.5-227.5 227.5zm35-227.5c0 19.305-15.695 35-35 35s-35-15.695-35-35 15.695-35 35-35 35 15.695 35 35zm-105 0c0 19.305-15.695 35-35 35s-35-15.695-35-35 15.695-35 35-35 35 15.695 35 35zm210 0c0 19.305-15.695 35-35 35s-35-15.695-35-35 15.695-35 35-35 35 15.695 35 35z"/>
</svg>
