<svg width="34" height="24" viewBox="0 0 34 24" fill="none" xmlns="http://www.w3.org/2000/svg">
<path d="M10.2 11.9C13.4884 11.9 16.15 9.23843 16.15 5.95C16.15 2.66156 13.4884 0 10.2 0C6.91156 0 4.25 2.66156 4.25 5.95C4.25 9.23843 6.91156 11.9 10.2 11.9ZM14.28 13.6H13.8391C12.7341 14.1312 11.5069 14.45 10.2 14.45C8.89312 14.45 7.67125 14.1312 6.56094 13.6H6.12C2.74125 13.6 0 16.3412 0 19.72V21.25C0 22.6578 1.14219 23.8 2.55 23.8H17.85C19.2578 23.8 20.4 22.6578 20.4 21.25V19.72C20.4 16.3412 17.6588 13.6 14.28 13.6ZM25.5 11.9C28.3156 11.9 30.6 9.61562 30.6 6.8C30.6 3.98437 28.3156 1.7 25.5 1.7C22.6844 1.7 20.4 3.98437 20.4 6.8C20.4 9.61562 22.6844 11.9 25.5 11.9ZM28.05 13.6H27.8481C27.1097 13.855 26.3288 14.025 25.5 14.025C24.6712 14.025 23.8903 13.855 23.1519 13.6H22.95C21.8663 13.6 20.8675 13.9134 19.9909 14.4181C21.2872 15.8153 22.1 17.6694 22.1 19.72V21.76C22.1 21.8769 22.0734 21.9884 22.0681 22.1H31.45C32.8578 22.1 34 20.9578 34 19.55C34 16.2616 31.3384 13.6 28.05 13.6Z" fill="black"/>
</svg>
