<svg width="46" height="32" viewBox="0 0 46 32" fill="none" xmlns="http://www.w3.org/2000/svg">
<path d="M13.7143 16C18.1357 16 21.7143 12.4214 21.7143 8C21.7143 3.57857 18.1357 0 13.7143 0C9.29286 0 5.71429 3.57857 5.71429 8C5.71429 12.4214 9.29286 16 13.7143 16ZM19.2 18.2857H18.6071C17.1214 19 15.4714 19.4286 13.7143 19.4286C11.9571 19.4286 10.3143 19 8.82143 18.2857H8.22857C3.68571 18.2857 0 21.9714 0 26.5143V28.5714C0 30.4643 1.53571 32 3.42857 32H24C25.8929 32 27.4286 30.4643 27.4286 28.5714V26.5143C27.4286 21.9714 23.7429 18.2857 19.2 18.2857ZM34.2857 16C38.0714 16 41.1429 12.9286 41.1429 9.14286C41.1429 5.35714 38.0714 2.28571 34.2857 2.28571C30.5 2.28571 27.4286 5.35714 27.4286 9.14286C27.4286 12.9286 30.5 16 34.2857 16ZM37.7143 18.2857H37.4429C36.45 18.6286 35.4 18.8571 34.2857 18.8571C33.1714 18.8571 32.1214 18.6286 31.1286 18.2857H30.8571C29.4 18.2857 28.0571 18.7071 26.8786 19.3857C28.6214 21.2643 29.7143 23.7571 29.7143 26.5143V29.2571C29.7143 29.4143 29.6786 29.5643 29.6714 29.7143H42.2857C44.1786 29.7143 45.7143 28.1786 45.7143 26.2857C45.7143 21.8643 42.1357 18.2857 37.7143 18.2857Z" fill="black"/>
</svg>
