<?xml version="1.0" encoding="UTF-8"?>
<svg width="752pt" height="752pt" version="1.1" viewBox="0 0 752 752" xmlns="http://www.w3.org/2000/svg">
 <defs>
  <clipPath id="b">
   <path d="m139.21 139.21h331.79v331.79h-331.79z"/>
  </clipPath>
  <clipPath id="a">
   <path d="m395 395h217.79v217.79h-217.79z"/>
  </clipPath>
 </defs>
 <g>
  <g clip-path="url(#b)">
   <path d="m421.61 187.7c-23.137-23.137-52.613-38.891-84.699-45.273-32.09-6.3867-65.352-3.1094-95.582 9.4102-30.227 12.52-56.062 33.723-74.238 60.926-18.18 27.207-27.883 59.188-27.883 91.906s9.7031 64.703 27.883 91.906c18.176 27.203 44.012 48.406 74.238 60.926 30.23 12.523 63.492 15.797 95.582 9.4141 32.086-6.3828 61.562-22.141 84.699-45.277 31.02-31.02 48.449-73.098 48.449-116.97s-17.43-85.945-48.449-116.97zm-33.719 200.16c-22.004 22.137-51.898 34.621-83.109 34.715-31.211 0.089844-61.18-12.219-83.316-34.223-22.133-22-34.621-51.898-34.719-83.105-0.09375-31.211 12.215-61.184 34.219-83.316 22-22.137 51.895-34.629 83.105-34.723 31.211-0.097657 61.18 12.211 83.32 34.211l0.25781 0.25781c21.98 21.98 34.371 51.766 34.469 82.848 0.097657 31.086-12.109 60.945-33.953 83.062z"/>
  </g>
  <g clip-path="url(#a)">
   <path d="m464.37 395.53-68.82 68.82 21.473 21.473 23.664-7.332-3.043 19.359 73.715 73.715 19.359-3.043-7.332 23.664 20.562 20.562 68.82-68.82-21.293-21.293-21.754 6.9766 2.5391-17.535-75.055-75.055-17.535 2.5391 6.8438-21.824zm82.398 134.84-16.273 16.273h-15.496l0.24219-14.934 16.289-16.289h15.496zm-26.887-26.887-16.273 16.273h-15.496l0.24219-14.934 16.289-16.289h15.496zm-26.891-26.891-16.273 16.273h-15.496l0.24219-14.934 16.289-16.289h15.496z"/>
  </g>
 </g>
</svg>
